<svg width="272" height="605" viewBox="0 0 272 605" fill="none" xmlns="http://www.w3.org/2000/svg">
<path d="M183.239 120.364H227.273V380.307C227.273 403.508 223.011 423.216 214.489 439.433C205.966 455.65 193.951 467.961 178.445 476.365C162.938 484.769 144.65 488.972 123.58 488.972C103.693 488.972 85.9967 485.361 70.4901 478.141C54.9834 470.802 42.7912 460.385 33.9134 446.891C25.0355 433.396 20.5966 417.357 20.5966 398.773H63.9205C63.9205 409.071 66.4654 418.067 71.5554 425.761C76.7637 433.337 83.866 439.256 92.8622 443.517C101.858 447.778 112.098 449.909 123.58 449.909C136.245 449.909 147.017 447.246 155.895 441.919C164.773 436.592 171.52 428.78 176.136 418.482C180.871 408.065 183.239 395.34 183.239 380.307V120.364Z" fill="#7888FF"/>
<rect x="18" y="71" width="209" height="49" fill="black"/>
</svg>
